<svg xmlns="http://www.w3.org/2000/svg" xmlns:xlink="http://www.w3.org/1999/xlink" viewBox="0 0 164.73 31.09"><defs><style>.cls-1{font-size:15px;fill:#fc7381;font-family:Belleza-Regular, Belleza;letter-spacing:0.2em;}.cls-2,.cls-4{fill:#292929;}.cls-3{fill:#8ad0c2;letter-spacing:0.2em;}.cls-4{font-size:5px;font-family:Montserrat-Regular, Montserrat;letter-spacing:0.4em;}.cls-5{letter-spacing:0.37em;}.cls-6{letter-spacing:0.39em;}.cls-7{letter-spacing:0.37em;}.cls-8{letter-spacing:0.39em;}.cls-9{stroke:#424242;stroke-miterlimit:10;stroke-width:0.25px;fill:url(#radial-gradient);}.cls-10{fill:#ff7b82;}.cls-11{fill:#82c8c1;}</style><radialGradient id="radial-gradient" cx="15.83" cy="23.95" r="20.06" gradientUnits="userSpaceOnUse"><stop offset="0.33" stop-color="#fff"/><stop offset="0.45" stop-color="#fee"/><stop offset="0.72" stop-color="#ffcece"/><stop offset="0.87" stop-color="#ffc2c2"/></radialGradient></defs><g id="Layer_2" data-name="Layer 2"><g id="Elements"><text class="cls-1" transform="translate(38.41 17.37)">OB<tspan class="cls-2" x="26.53" y="0">/</tspan><tspan class="cls-3" x="33.7" y="0">GYN</tspan></text><text class="cls-4" transform="translate(38.76 27.42)">ASSOCI<tspan class="cls-5" x="31.03" y="0">A</tspan><tspan x="36.44" y="0">TES OF I</tspan><tspan class="cls-6" x="73.22" y="0">D</tspan><tspan x="79.3" y="0">AHO </tspan><tspan class="cls-7" x="100.46" y="0">F</tspan><tspan x="105.46" y="0">AL</tspan><tspan class="cls-8" x="115.99" y="0">L</tspan><tspan x="120.89" y="0">S</tspan></text><circle class="cls-9" cx="15.55" cy="15.55" r="15.42"/><circle class="cls-10" cx="15.53" cy="6.96" r="2.06"/><path class="cls-10" d="M13.47,12.42l.34,2.33L12.2,19v.54l.34.17h1.27l.5,4,.28.37.68.19h.67l.37-.28.19-.31.68-3.9h1.68l-1.52-4.72.26-2.5,1.65,4,.22.27h.42s.49-.29.5-.36,0-.71,0-.71l-2.06-5.15L17.86,10a3.67,3.67,0,0,0-.5-.26h-.69l-.15.14-.92,2L14.47,9.75h-.65l-.25.13s-.26.17-.3.21-.22.32-.26.35a1.21,1.21,0,0,0-.17.24L10.91,15l-.38,1.12.07.3.27.38h.59s.25-.07.25-.14S13.26,13,13.26,13Z"/><path class="cls-11" d="M4.4,24.36s-.72-8.67,1.78-12.88a.66.66,0,0,1,.63-.08,1.91,1.91,0,0,1,.68,1.1,36.62,36.62,0,0,1-.35,4.41s-1.47-.6-1.84.79,3.24,7.57,3.91,8,.16-.55.16-.55S6.15,20.3,6,19.57s-.59-1.35-.36-1.73a1.59,1.59,0,0,1,.44-.5h.55l.62.47L7.74,19,8.88,21a2.16,2.16,0,0,0,.92.89,25.79,25.79,0,0,1,2.28,1.47,10.81,10.81,0,0,1,1.74,2.46c0,.24.27.57.28.95s.07,3.16.07,3.16S8.68,29,7.65,27.6"/><path class="cls-11" d="M26.69,24.36s.72-8.67-1.78-12.88a.66.66,0,0,0-.63-.08,1.91,1.91,0,0,0-.68,1.1A36.31,36.31,0,0,0,24,16.91s1.46-.6,1.84.79-3.25,7.57-3.92,8-.16-.55-.16-.55,3.22-4.86,3.34-5.59.59-1.35.36-1.73a1.59,1.59,0,0,0-.44-.5h-.55l-.61.47L23.35,19,22.21,21a2.16,2.16,0,0,1-.92.89A25.79,25.79,0,0,0,19,23.36a17.76,17.76,0,0,0-1.74,2.46,2.28,2.28,0,0,0-.28.95c0,.38-.07,3.16-.07,3.16s5.49-.92,6.52-2.33"/></g></g></svg>